<?xml version="1.0" encoding="UTF-8"?><svg xmlns="http://www.w3.org/2000/svg" viewBox="0 0 348.86 348.86"><g id="a"><rect width="348.86" height="348.86" fill="#050033"/></g><g id="b"><path d="m259.71,271.03v10.96h-43.92v-8.72l22.42-21.17c5.15-4.9,6.06-7.89,6.06-10.71,0-4.57-3.16-7.22-9.3-7.22-4.98,0-9.22,1.91-12.04,5.81l-9.8-6.31c4.48-6.56,12.62-10.79,23.08-10.79,12.95,0,21.59,6.64,21.59,17.19,0,5.65-1.58,10.79-9.71,18.35l-13.37,12.62h24.99Z" fill="#b88d5b"/><path d="m310.69,264.22c0,9.8-7.55,18.76-24.08,18.76-8.14,0-16.52-2.24-22.17-6.23l5.23-10.29c4.4,3.32,10.54,5.23,16.6,5.23,6.72,0,10.88-2.74,10.88-7.47,0-4.4-3.24-7.14-10.88-7.14h-6.14v-8.88l11.96-13.53h-24.74v-10.79h40.68v8.72l-13.12,14.94c10.46,1.66,15.77,8.14,15.77,16.69Z" fill="#b88d5b"/><path d="m148.87,281.41l-.08-33.55-18.73,27.03h-4.72l-18.73-26.55v33.06h42.26Zm-43.65-57l22.52,31.44,22.35-31.44h-44.87Z" fill="#b88d5b" stroke="#b88d5b" stroke-miterlimit="10" stroke-width="1.5"/><path d="m84.15,252.26h10.02v22.72c-5.94,4.8-14.25,7.25-22.31,7.25-17.67,0-30.7-12.3-30.7-29.31s13.03-29.31,30.86-29.31c9.53,0,17.51,3.18,22.88,9.28l-6.68,6.51c-4.48-4.48-9.61-6.51-15.72-6.51-12.13,0-20.68,8.22-20.68,20.03s8.55,20.03,20.6,20.03c4.07,0,8.06-.81,11.73-2.93v-17.75Z" fill="#b88d5b" stroke="#b88d5b" stroke-miterlimit="10" stroke-width="1.5"/><path d="m199.39,256.82h-27.52v15.72h32.16v8.88h-42.75v-57h41.61v8.7c-10.34.06-20.68.11-31.02.17v14.82c9.17.03,18.33.06,27.5.09,0,2.87.02,5.75.03,8.62Z" fill="#b88d5b" stroke="#b88d5b" stroke-miterlimit="10" stroke-width="1.5"/><path d="m97.83,84.19l-.38,2.88-3.46-.19c-.38,0-.72.16-1.01.48-.29.32-.66.9-1.1,1.73l-28.99,52.8h-2.78l-14.88-52.8c-.38-1.47-.96-2.21-1.73-2.21l-2.69.19.38-2.88h20.16l-.38,2.88-5.09-.19c-.32,0-.59.13-.82.38-.23.26-.34.58-.34.96,0,.26.06.58.19.96l11.42,39.46,21.6-39.55c.32-.51.48-.99.48-1.44,0-.51-.29-.77-.86-.77l-4.9.19.38-2.88h14.78Z" fill="#fff"/><path d="m106.22,140.68c-1.82,1.18-3.44,1.78-4.85,1.78-1.15,0-2.05-.37-2.69-1.1-.64-.73-.96-1.84-.96-3.31,0-1.09.19-2.93.58-5.52.38-2.59.64-4.3.77-5.14l1.15-7.3c.83-5.57,1.25-9.54,1.25-11.9,0-.9-.3-1.54-.91-1.92-.61-.38-1.3-.58-2.06-.58-.51,0-1.02.06-1.54.19l-.48-2.78c4.03-1.66,7.68-2.5,10.94-2.5.96,0,1.7.14,2.21.43.51.29.77.85.77,1.68,0,.51-.38,2.75-1.15,6.72-1.22,6.34-1.86,9.66-1.92,9.98-1.02,5.82-1.54,10.18-1.54,13.06,0,1.73.54,2.59,1.63,2.59,1.02,0,2.18-.42,3.46-1.25l1.15,1.92c-2.05,2.11-3.98,3.76-5.81,4.94Zm5.76-59.86c.8.71,1.2,1.67,1.2,2.88,0,1.6-.54,2.87-1.63,3.79-1.09.93-2.5,1.39-4.22,1.39-1.34,0-2.45-.35-3.31-1.06-.86-.7-1.3-1.66-1.3-2.88,0-1.54.58-2.78,1.73-3.74,1.15-.96,2.56-1.44,4.22-1.44,1.41,0,2.51.35,3.31,1.06Z" fill="#fff"/><path d="m154.7,101.85c1.06,1.02,1.58,2.46,1.58,4.32,0,2.88-1.19,6.67-3.55,11.38-2.37,4.7-5.22,9.36-8.54,13.97-3.33,4.61-6.3,8.1-8.93,10.46h-2.59l-8.06-33.22c-.26-1.15-.62-1.97-1.1-2.45s-1.17-.72-2.06-.72c-.64,0-1.44.1-2.4.29l-.48-2.78c1.47-.64,3.06-1.22,4.75-1.73,1.69-.51,3.09-.77,4.18-.77,1.22,0,2.21.4,2.98,1.2.77.8,1.34,2.26,1.73,4.37l6.14,27.84c3.33-3.84,6.25-7.94,8.78-12.29,2.53-4.35,3.79-7.84,3.79-10.46,0-.9-.23-1.49-.67-1.78-.45-.29-1.28-.46-2.5-.53-.83-.06-1.49-.46-1.97-1.2-.48-.73-.72-1.68-.72-2.83,0-3.07,1.7-4.61,5.09-4.61,1.98,0,3.5.51,4.56,1.54Z" fill="#fff"/><path d="m191.23,116.06c-1.79,2.05-4.66,3.79-8.59,5.23-3.94,1.44-8.95,2.38-15.02,2.83-.06.58-.1,1.44-.1,2.59,0,3.2.69,5.75,2.06,7.63,1.38,1.89,3.15,2.83,5.33,2.83,2.88,0,7.1-1.76,12.67-5.28l2.11,1.54c-2.56,2.62-5.33,4.77-8.3,6.43-2.98,1.66-5.94,2.5-8.88,2.5-3.91,0-7.14-1.38-9.7-4.13-2.56-2.75-3.84-6.37-3.84-10.85s1.07-8.54,3.22-12.77c2.14-4.22,4.98-7.68,8.5-10.37,3.52-2.69,7.23-4.03,11.14-4.03,3.46,0,6.34.91,8.64,2.74,2.3,1.82,3.46,4.05,3.46,6.67,0,2.24-.9,4.38-2.69,6.43Zm-20.06-5.18c-1.67,3.26-2.72,6.66-3.17,10.18,6.08-.45,10.78-1.78,14.11-3.98,3.33-2.21,4.99-4.88,4.99-8.02,0-1.66-.46-3.07-1.39-4.22-.93-1.15-2.29-1.73-4.08-1.73-4.22,0-7.71,2.59-10.46,7.78Z" fill="#fff"/><path d="m203.9,133.2c1.41-1.18,3.07-1.78,4.99-1.78,1.54,0,2.8.48,3.79,1.44s1.49,2.15,1.49,3.55c0,1.6-.72,3.01-2.16,4.22-1.44,1.21-3.02,1.82-4.75,1.82-1.47,0-2.75-.48-3.84-1.44-1.09-.96-1.63-2.14-1.63-3.55,0-1.66.7-3.09,2.11-4.27Zm14.26-51.84c.73.67,1.1,1.62,1.1,2.83,0,.83-.14,1.9-.43,3.22-.29,1.31-.62,2.7-1.01,4.18l-2.4,8.83c-2.3,8.7-3.74,15.46-4.32,20.26-.06,1.02-.48,1.54-1.25,1.54-.7,0-1.06-.29-1.06-.86.06-.9.21-2.75.43-5.57.22-2.82.37-4.99.43-6.53l-.1-8.83-.1-8.83c-.06-2.43,0-4.61.19-6.53.19-1.47.75-2.62,1.68-3.46.93-.83,2.13-1.25,3.6-1.25s2.48.34,3.22,1.01Z" fill="#fff"/><path d="m254.97,77.28c-.58-.38-1.34-.58-2.3-.58s-1.73.06-2.3.19l-.58-2.4c4.29-2.05,8.22-3.07,11.81-3.07,1.02,0,1.81.14,2.35.43.54.29.82.85.82,1.68,0,.96-.42,3.74-1.25,8.35l-1.34,7.87c-1.41,8.7-2.67,17.12-3.79,25.25-1.12,8.13-1.74,13.95-1.87,17.47,0,.77.11,1.39.34,1.87.22.48.72.72,1.49.72.45,0,1.04-.1,1.78-.29.74-.19,1.46-.51,2.16-.96l1.15,1.92c-1.98,2.11-4.02,3.76-6.1,4.94-2.08,1.18-3.89,1.78-5.42,1.78-1.15,0-2.06-.37-2.74-1.1s-1.01-1.84-1.01-3.31c0-1.73,1.06-9.5,3.17-23.33l1.25-8.74c2.17-14.65,3.26-23.65,3.26-26.98,0-.77-.29-1.34-.86-1.73Z" fill="#fff"/><path d="m308.73,133.82l1.15,1.92c-1.92,2.3-3.95,4-6.1,5.09-2.14,1.09-4.02,1.63-5.62,1.63-.9,0-1.5-.35-1.82-1.06-.32-.7-.48-1.82-.48-3.36,0-1.86.67-6.69,2.02-14.5-3.65,6.91-6.91,11.79-9.79,14.64-2.88,2.85-5.86,4.27-8.93,4.27-2.82,0-4.99-1.04-6.53-3.12-1.54-2.08-2.3-4.94-2.3-8.59,0-4.48,1.1-9.1,3.31-13.87,2.21-4.77,5.15-8.74,8.83-11.9,3.68-3.17,7.54-4.75,11.57-4.75,1.54,0,2.96.32,4.27.96,1.31.64,2.38,1.5,3.22,2.59l.58-2.11,8.06-1.34-2.3,9.5c-1.15,5.12-2.11,9.92-2.88,14.4-.77,4.48-1.15,7.55-1.15,9.22,0,1.09.42,1.63,1.25,1.63,1.15,0,2.37-.42,3.65-1.25Zm-19.06-1.82c2.85-3.46,5.33-7.49,7.44-12.1,2.11-4.61,3.17-8.48,3.17-11.62,0-1.47-.58-2.7-1.73-3.7-1.15-.99-2.59-1.49-4.32-1.49-3.46,0-6.38,1.52-8.78,4.56-2.4,3.04-4.14,6.9-5.23,11.57-.9,3.33-1.34,6.82-1.34,10.46,0,2.43.35,4.29,1.06,5.57.7,1.28,1.6,1.92,2.69,1.92,1.86,0,4.21-1.73,7.06-5.18Z" fill="#fff"/><path d="m40.67,155.7h11.49v4.34h-6.21v42.78h6.21v4.34h-11.49v-51.47Z" fill="#b88d5b"/><path d="m84.72,196.5l-8.3-11.82c-.77.05-1.59.11-2.42.11h-9.51v11.71h-5.5v-38.49h15.01c10.01,0,16.06,5.06,16.06,13.42,0,5.94-3.08,10.23-8.47,12.15l9.13,12.92h-5.99Zm-.17-25.08c0-5.5-3.68-8.63-10.72-8.63h-9.35v17.32h9.35c7.04,0,10.72-3.19,10.72-8.69Z" fill="#b88d5b"/><path d="m94.24,207.17v-4.34h6.21v-42.78h-6.21v-4.34h11.49v51.47h-11.49Z" fill="#b88d5b"/><path d="m132.74,181.46c-.99,1.19-2.56,2.24-4.7,3.13-2.15.9-4.87,1.51-8.17,1.84v.82c0,1.94.38,3.4,1.13,4.37.75.97,1.79,1.46,3.11,1.46,1.03,0,2.13-.24,3.3-.71,1.17-.48,2.31-1.15,3.41-2.04l1.21,1.1c-1.28,1.69-2.91,3.03-4.87,4.04-1.96,1.01-3.97,1.51-6.02,1.51-2.71,0-4.83-.82-6.35-2.45-1.52-1.63-2.28-3.88-2.28-6.74s.66-5.3,1.98-7.65c1.32-2.35,3.06-4.2,5.22-5.56,2.16-1.36,4.44-2.03,6.82-2.03s4.17.48,5.58,1.43c1.41.95,2.12,2.2,2.12,3.74,0,1.28-.49,2.52-1.48,3.71Zm-11.22-2.5c-.77,1.8-1.26,3.69-1.48,5.67,2.71-.48,4.78-1.38,6.19-2.72,1.41-1.34,2.12-2.98,2.12-4.92,0-.73-.17-1.33-.52-1.79-.35-.46-.89-.69-1.62-.69-1.87,0-3.43,1.48-4.68,4.46Zm13.37-15.4l-9.85,5.67c-.51.33-.97.49-1.38.49-.37,0-.55-.17-.55-.49,0-.22.07-.43.22-.63.15-.2.44-.5.88-.91l5.94-5.78c.62-.59,1.04-.95,1.27-1.1.22-.15.51-.22.88-.22.62,0,1.35.24,2.17.71.83.48,1.24.9,1.24,1.27s-.28.7-.83.99Z" fill="#fff"/><path d="m156.25,173.65c.68.71,1.02,1.71,1.02,3,0,2.02-.69,4.34-2.06,6.96-1.38,2.62-3.06,5.13-5.06,7.54-2,2.4-3.88,4.28-5.64,5.64h-1.92l-5-19.03c-.15-.66-.35-1.13-.6-1.4-.26-.27-.59-.41-.99-.41-.29,0-.71.05-1.27.17l-.33-1.87c2.71-.95,4.84-1.43,6.38-1.43.95,0,1.72.26,2.31.77.59.51,1.03,1.48,1.32,2.92l3.19,14.41c1.76-1.94,3.2-3.87,4.32-5.77,1.12-1.91,1.68-3.59,1.68-5.06,0-.92-.57-1.38-1.71-1.38-.7,0-1.24-.25-1.62-.74s-.58-1.18-.58-2.06c0-.99.34-1.79,1.02-2.39s1.59-.91,2.72-.91c1.21,0,2.15.36,2.83,1.07Z" fill="#fff"/><path d="m179,175.11c1.47,1.69,2.2,3.92,2.2,6.71s-.56,5.18-1.68,7.51c-1.12,2.33-2.77,4.2-4.95,5.61-2.18,1.41-4.81,2.12-7.89,2.12s-5.2-.85-6.68-2.56c-1.48-1.71-2.23-3.93-2.23-6.68s.56-5.23,1.68-7.54,2.78-4.17,4.98-5.58c2.2-1.41,4.84-2.12,7.92-2.12s5.19.84,6.66,2.53Zm-12.92,6.1c-.73,2.64-1.1,5.3-1.1,7.98,0,3.67.95,5.5,2.86,5.5,2.24,0,3.96-2.18,5.17-6.54.66-2.49.99-5.06.99-7.7,0-3.7-.94-5.56-2.8-5.56-2.2,0-3.91,2.11-5.12,6.33Z" fill="#fff"/><path d="m188.07,160.09c-.33-.22-.77-.33-1.32-.33s-.99.04-1.32.11l-.27-1.76c3.19-1.17,6.09-1.76,8.69-1.76.77,0,1.36.11,1.76.33.4.22.61.64.61,1.26,0,.29-.09.98-.28,2.06-.18,1.08-.33,1.97-.44,2.67-.07.33-.33,1.72-.77,4.18-2.05,12.58-3.15,20.59-3.3,24.04,0,.44.06.8.19,1.07.13.27.41.41.85.41.26,0,.6-.06,1.02-.17.42-.11.83-.29,1.24-.55l.71,1.54c-1.47,1.21-2.96,2.15-4.48,2.83-1.52.68-2.85,1.02-3.99,1.02-.84,0-1.51-.22-2.01-.66-.49-.44-.74-1.06-.74-1.87,0-.99.61-5.44,1.82-13.37l.71-5c1.21-8.4,1.81-13.42,1.81-15.07,0-.44-.17-.77-.5-.99Z" fill="#fff"/><path d="m223.93,193.2c-1.61,1.36-3.2,2.34-4.76,2.94s-2.94.91-4.15.91c-.66,0-1.12-.2-1.38-.6-.26-.4-.38-1.04-.38-1.92,0-.66.08-1.64.25-2.94.17-1.3.36-2.69.58-4.15-1.91,3.48-3.7,5.96-5.39,7.43-1.69,1.47-3.43,2.2-5.22,2.2-1.47,0-2.58-.41-3.35-1.24-.77-.83-1.16-1.88-1.16-3.16s.55-4.42,1.65-9.29c.73-3.19,1.1-5.11,1.1-5.77,0-.99-.68-1.48-2.04-1.48-.44,0-.81.04-1.1.11l-.22-1.98c1.98-.51,3.54-.88,4.68-1.1,1.14-.22,2.33-.33,3.57-.33,1.5,0,2.25.48,2.25,1.43,0,.37-.17,1.3-.49,2.8-.33,1.5-.55,2.46-.66,2.86-.11.48-.35,1.55-.71,3.22-.37,1.67-.65,3.07-.85,4.21-.2,1.14-.3,1.96-.3,2.48,0,.66.12,1.18.36,1.57.24.39.61.58,1.13.58.88,0,1.86-.63,2.94-1.9,1.08-1.27,2.07-2.81,2.97-4.65.9-1.83,1.53-3.54,1.9-5.12l1.04-6.65,7.54-.94c-.11.51-.29,1.48-.55,2.92-1.06,5.57-1.77,9.37-2.12,11.38-.35,2.02-.52,3.5-.52,4.46,0,.62.24.94.71.94.66,0,1.36-.24,2.09-.71l.6,1.54Z" fill="#fff"/><path d="m237.18,182.09c-.77,4.44-1.15,7.33-1.15,8.69,0,1.25.51,1.87,1.54,1.87s2.31-.66,3.85-1.98l1.26,1.21c-2.97,3.41-6.12,5.12-9.46,5.12-1.58,0-2.73-.34-3.46-1.02s-1.1-1.55-1.1-2.61c0-.88.31-3.25.93-7.1l.33-2.2,1.49-8.85h-4.29l1.26-2.09h3.36l.82-5.06,7.43-1.27-1.16,6.33h5.33v1.21l-1.59.88h-4.12c-.62,3.23-1.04,5.52-1.27,6.88Z" fill="#fff"/><path d="m253.66,196.03c-1.38.68-2.58,1.02-3.6,1.02-.84,0-1.5-.21-1.98-.63-.48-.42-.71-1.05-.71-1.9,0-.62.11-1.68.33-3.16.22-1.48.37-2.47.44-2.94l.66-4.18c.44-3.3.66-5.55.66-6.76,0-.92-.55-1.38-1.65-1.38-.29,0-.59.04-.88.11l-.28-1.98c3.04-.95,5.78-1.43,8.2-1.43.73,0,1.29.1,1.68.3.38.2.58.63.58,1.29,0,.33-.22,1.59-.66,3.79-.62,3.19-.99,5.08-1.1,5.67-.59,3.15-.88,5.5-.88,7.04,0,.99.31,1.48.94,1.48.59,0,1.25-.24,1.98-.71l.66,1.54c-1.54,1.21-3,2.15-4.37,2.83Zm3.93-34.87c.7.53,1.04,1.24,1.04,2.12,0,1.25-.44,2.22-1.32,2.92-.88.7-2.04,1.05-3.46,1.05-1.14,0-2.05-.27-2.75-.8-.7-.53-1.04-1.24-1.04-2.12,0-1.17.45-2.13,1.35-2.86.9-.73,2.03-1.1,3.38-1.1,1.17,0,2.11.27,2.8.8Z" fill="#fff"/><path d="m281.95,175.11c1.47,1.69,2.2,3.92,2.2,6.71s-.56,5.18-1.68,7.51c-1.12,2.33-2.77,4.2-4.95,5.61-2.18,1.41-4.81,2.12-7.89,2.12s-5.2-.85-6.68-2.56c-1.49-1.71-2.23-3.93-2.23-6.68s.56-5.23,1.68-7.54c1.12-2.31,2.78-4.17,4.98-5.58,2.2-1.41,4.84-2.12,7.92-2.12s5.19.84,6.65,2.53Zm-12.92,6.1c-.73,2.64-1.1,5.3-1.1,7.98,0,3.67.95,5.5,2.86,5.5,2.24,0,3.96-2.18,5.17-6.54.66-2.49.99-5.06.99-7.7,0-3.7-.93-5.56-2.8-5.56-2.2,0-3.91,2.11-5.12,6.33Z" fill="#fff"/><path d="m312.64,193.2c-1.47,1.17-3,2.11-4.59,2.8-1.59.7-2.92,1.04-3.99,1.04-.66,0-1.21-.23-1.65-.69-.44-.46-.66-1.05-.66-1.79,0-.84.21-2.27.63-4.29.42-2.02.67-3.21.74-3.58.92-4.03,1.38-6.56,1.38-7.59,0-.59-.15-1.04-.44-1.38-.29-.33-.7-.5-1.21-.5-.88,0-1.86.62-2.94,1.87-1.08,1.25-2.09,2.84-3.03,4.78-.93,1.94-1.66,3.87-2.17,5.78l-.83,6.82h-6.76c1.69-10.01,2.53-16.23,2.53-18.65,0-1.17-.53-1.76-1.59-1.76-.29,0-.59.04-.88.11l-.22-1.98c1.39-.44,2.69-.79,3.88-1.04,1.19-.26,2.39-.39,3.6-.39,1.8,0,2.7.48,2.7,1.43,0,.59-.29,2.38-.88,5.39l-.5,2.97c1.32-2.82,2.91-5.2,4.76-7.12,1.85-1.92,3.91-2.89,6.19-2.89,1.5,0,2.7.46,3.58,1.38.88.92,1.32,2.11,1.32,3.57,0,.81-.13,1.81-.38,3.02-.26,1.21-.64,2.92-1.16,5.12-.77,2.93-1.16,4.75-1.16,5.44,0,.29.07.58.22.85.15.27.42.41.82.41.62,0,1.3-.24,2.04-.71l.66,1.54Z" fill="#fff"/></g></svg>