<?xml version="1.0" encoding="UTF-8"?>
<svg xmlns="http://www.w3.org/2000/svg" viewBox="0 0 425.2 425.2">
  <defs>
    <style>
      .cls-1 {
        fill: #fff;
      }

      .cls-2 {
        fill: #050033;
        stroke: #231f20;
      }

      .cls-2, .cls-3 {
        stroke-miterlimit: 10;
        stroke-width: 1.5px;
      }

      .cls-3 {
        stroke: #b88d5b;
      }

      .cls-3, .cls-4 {
        fill: #b88d5b;
      }
    </style>
  </defs>
  <g id="Layer_4" data-name="Layer 4">
    <rect class="cls-2" x="0" width="425.2" height="425.2"/>
  </g>
  <g id="Layer_1" data-name="Layer 1">
    <g>
      <g>
        <path class="cls-4" d="m315.5,252.16v13.46h-53.94v-10.71l27.53-26c6.32-6.02,7.44-9.69,7.44-13.15,0-5.61-3.88-8.87-11.42-8.87-6.12,0-11.32,2.35-14.78,7.14l-12.03-7.75c5.51-8.05,15.5-13.25,28.35-13.25,15.91,0,26.51,8.16,26.51,21.11,0,6.93-1.94,13.25-11.93,22.53l-16.42,15.5h30.69Z"/>
        <path class="cls-4" d="m378.11,243.79c0,12.03-9.28,23.04-29.57,23.04-9.99,0-20.29-2.75-27.22-7.65l6.42-12.64c5.4,4.08,12.95,6.42,20.39,6.42,8.26,0,13.36-3.36,13.36-9.18,0-5.4-3.98-8.77-13.36-8.77h-7.55v-10.91l14.68-16.62h-30.38v-13.26h49.96v10.71l-16.11,18.35c12.85,2.04,19.37,9.99,19.37,20.49Z"/>
      </g>
      <path class="cls-3" d="m179.37,264.9l-.1-41.2-23,33.2h-5.8l-23-32.6v40.6h51.9Zm-53.6-70l27.65,38.62,27.45-38.62h-55.1Z"/>
      <path class="cls-3" d="m99.89,229.61h12.3v27.9c-7.3,5.9-17.5,8.9-27.4,8.9-21.7,0-37.7-15.1-37.7-36s16-36,37.9-36c11.7,0,21.5,3.9,28.1,11.4l-8.2,8c-5.5-5.5-11.8-8-19.3-8-14.9,0-25.4,10.1-25.4,24.6s10.5,24.6,25.3,24.6c5,0,9.9-1,14.4-3.6v-21.8Z"/>
      <path class="cls-3" d="m233.57,224.51,8,10.75h-34v19h40v11h-53v-70h52l-.02,11h-38.98v18h34v11Z"/>
    </g>
    <g>
      <path class="cls-1" d="m181.48,113.86l-.56,3.44-3.25-.19c-.43,0-.79.14-1.07.42s-.67.85-1.16,1.72l-28.62,50.45h-4.92l-14.59-50.45c-.25-.74-.51-1.28-.79-1.63-.28-.34-.6-.51-.98-.51l-2.6.19.46-3.44h23.6l-.46,3.44-4.55-.19c-.43,0-.78.23-1.02.7-.25.46-.31.98-.19,1.53l10.31,35.21,19.51-34.47c.62-1.11.93-1.86.93-2.23,0-.5-.34-.74-1.02-.74l-4.55.19.56-3.44h14.96Z"/>
      <path class="cls-1" d="m189.88,168.54c-2.32,1.15-4.35,1.72-6.09,1.72-1.43,0-2.54-.36-3.34-1.07-.81-.71-1.21-1.78-1.21-3.21,0-1.05.19-2.83.56-5.34.37-2.51.62-4.16.74-4.97l1.12-7.06c.74-5.57,1.11-9.38,1.11-11.43,0-1.55-.93-2.32-2.79-2.32-.5,0-.99.06-1.49.19l-.46-3.34c5.14-1.61,9.75-2.42,13.84-2.42,1.24,0,2.18.17,2.83.51.65.34.98,1.07.98,2.18,0,.56-.37,2.69-1.11,6.41-1.05,5.39-1.67,8.58-1.86,9.57-.99,5.33-1.49,9.29-1.49,11.89,0,1.67.53,2.51,1.58,2.51.99,0,2.11-.4,3.34-1.21l1.11,2.6c-2.6,2.04-5.06,3.64-7.39,4.78Zm6.64-58.9c1.18.9,1.77,2.09,1.77,3.58,0,2.11-.74,3.75-2.23,4.92-1.49,1.18-3.44,1.77-5.85,1.77-1.92,0-3.47-.45-4.65-1.35-1.18-.9-1.76-2.09-1.76-3.58,0-1.98.76-3.59,2.28-4.83,1.52-1.24,3.42-1.86,5.71-1.86,1.98,0,3.56.45,4.74,1.35Z"/>
      <path class="cls-1" d="m238.75,130.72c1.15,1.21,1.72,2.9,1.72,5.06,0,3.41-1.16,7.33-3.48,11.75-2.32,4.43-5.17,8.67-8.55,12.73-3.38,4.06-6.55,7.23-9.52,9.52h-3.25l-8.45-32.15c-.25-1.11-.59-1.9-1.02-2.37-.43-.46-.99-.7-1.67-.7-.5,0-1.21.09-2.14.28l-.56-3.16c4.58-1.61,8.18-2.42,10.78-2.42,1.61,0,2.91.43,3.9,1.3.99.87,1.73,2.51,2.23,4.92l5.39,24.34c2.97-3.28,5.4-6.53,7.29-9.76,1.89-3.22,2.83-6.07,2.83-8.55,0-1.55-.96-2.32-2.88-2.32-1.18,0-2.09-.42-2.74-1.25-.65-.84-.98-2-.98-3.48,0-1.67.57-3.02,1.72-4.04,1.15-1.02,2.68-1.53,4.6-1.53,2.04,0,3.64.6,4.78,1.81Z"/>
      <path class="cls-1" d="m274.75,143.92c-1.67,2.01-4.32,3.78-7.94,5.3-3.62,1.52-8.22,2.55-13.8,3.11v1.39c0,3.28.63,5.75,1.9,7.39,1.27,1.64,3.02,2.46,5.25,2.46,1.73,0,3.59-.4,5.57-1.21,1.98-.8,3.9-1.95,5.76-3.44l2.04,1.86c-2.17,2.85-4.91,5.13-8.22,6.83-3.31,1.7-6.7,2.55-10.17,2.55-4.58,0-8.16-1.38-10.73-4.13-2.57-2.76-3.86-6.55-3.86-11.38s1.12-8.95,3.34-12.91c2.23-3.96,5.17-7.09,8.83-9.38,3.65-2.29,7.49-3.44,11.52-3.44s7.04.81,9.43,2.42c2.38,1.61,3.58,3.72,3.58,6.32,0,2.17-.84,4.26-2.51,6.27Zm-18.95-4.23c-1.3,3.04-2.14,6.22-2.51,9.57,4.58-.8,8.07-2.34,10.45-4.6,2.38-2.26,3.58-5.03,3.58-8.32,0-1.24-.29-2.24-.88-3.02-.59-.77-1.5-1.16-2.74-1.16-3.16,0-5.79,2.51-7.9,7.53Z"/>
      <path class="cls-1" d="m283.39,158.64c1.86-1.55,4.12-2.32,6.78-2.32,2.23,0,4.06.59,5.48,1.77,1.42,1.18,2.14,2.66,2.14,4.46,0,2.11-.95,3.92-2.83,5.44-1.89,1.52-4.13,2.28-6.74,2.28-2.23,0-4.06-.57-5.48-1.72-1.43-1.15-2.14-2.62-2.14-4.41,0-2.1.93-3.93,2.79-5.48Zm17.33-46.96c1.02,1.02,1.53,2.4,1.53,4.13,0,1.05-.14,2.12-.42,3.21-.28,1.08-.76,2.55-1.44,4.41l-2.97,7.99c-.31.93-.53,1.52-.65,1.76-1.24,3.53-2.18,6.43-2.83,8.69-.65,2.26-1.13,4.57-1.44,6.92-.19,1.24-.71,1.86-1.58,1.86s-1.3-.4-1.3-1.21l.19-2.04.37-5.02c0-1.42-.06-2.85-.19-4.27-.12-1.42-.22-2.38-.28-2.88-.13-.8-.25-2.07-.37-3.81l-.65-7.99c-.06-1.12-.09-2.51-.09-4.18.06-2.48.67-4.61,1.81-6.41,1.15-1.8,3.05-2.69,5.71-2.69,2.04,0,3.58.51,4.6,1.53Z"/>
    </g>
  </g>
</svg>